<svg viewBox="0 220 652 200" xmlns="http://www.w3.org/2000/svg"><path d="m41.3 300.8c-14.3 0-25.9 11.6-25.9 25.9v52.2c0 14.3 11.6 25.9 25.9 25.9h143.1c14.3 0 25.9-11.6 25.9-25.9v-104.2c0-14.3-11.6-25.9-25.9-25.9h-169v26h160.6c4.6 0 8.4 3.8 8.4 8.4v87.2c0 4.6-3.8 8.4-8.4 8.4h-126.2c-4.6 0-8.4-3.8-8.4-8.4v-35.2c0-4.6 3.8-8.4 8.4-8.4h108.5v-26z" fill="#0093d7"/><path d="m543 337.6c0 19.4-13.2 30.2-31.3 30.2s-31.3-10.8-31.3-30.2 13.2-30.2 31.3-30.2 31.3 10.8 31.3 30.2m-129 28.3h13.6l3.5-7.5c4.2 6.7 11 9.3 18.6 9.3 18.2 0 25-14.2 25-30.2s-6.8-30.2-25-30.2c-5.4 0-11.1 3.3-15.6 8.4v-30.1h-30v9.7h5.6c3.5 0 4.4 1.8 4.4 5.2v65.4zm-68 0h13.6l3.5-7.5c4.2 6.7 11 9.3 18.6 9.3 18.2 0 25-14.2 25-30.2s-6.8-30.2-25-30.2c-5.4 0-11.1 3.3-15.6 8.4v-30.1h-30v9.7h5.6c3.5 0 4.4 1.8 4.4 5.2v65.4zm-56.7-62.3h.2l8.7 26.1h-17.6zm-7.3-18-20.2 60.6c-2.5 7.4-4.1 9.1-8.4 9.1h-4.1v10.7h35.6v-10.7h-3.5c-3.3 0-7.6-.4-7.6-2.3 0-1.7.5-3.5 1.8-7.7l1.5-4.9h24.7l2.5 8.7c.5 1.8.6 3.2.6 4.4 0 1.3-3 1.8-6.7 1.8h-3.6v10.7h44.4v-10.7h-4.1c-4.2 0-5.9-1.7-8.3-9.1l-20.2-60.6zm103.2 52c0 12.4-2.8 19.8-9.6 19.8s-9.6-7.4-9.6-19.8c0-12.3 2.8-19.7 9.6-19.7 6.9-.1 9.6 7.3 9.6 19.7m126.5-20.5c-7.3 0-9.8 6.2-9.8 20.5s2.5 20.5 9.8 20.5 9.8-6.2 9.8-20.5-2.5-20.5-9.8-20.5m117.7 21.5v9.5c0 5.6-1.2 8.9-5.8 8.9-2.8 0-4.1-2.1-4.1-4.6v-33.3h14.9v-9.7h-14.9v-22.5h-12c-1 10-4.1 22.5-16.2 22.5h-18.9v-22.5h-12c-1 10-4.1 22.5-16.2 22.5v9.7h8.1v30.4c0 12.4 6.9 18.4 19.4 18.4 14.6 0 20.3-6.5 20.3-18.4v-10.8h-9.7v9.5c0 5.6-1.2 8.9-5.8 8.9-2.8 0-4.1-2.1-4.1-4.6v-33.3h27v30.4c0 12.4 6.9 18.4 19.4 18.4 14.5 0 20.4-6.5 20.4-18.4v-10.8h-9.8zm-176.2-1c0 12.4-2.8 19.8-9.6 19.8s-9.6-7.4-9.6-19.8c0-12.3 2.8-19.7 9.6-19.7 6.9-.1 9.6 7.3 9.6 19.7"/></svg>