<svg height="168" width="500" xmlns="http://www.w3.org/2000/svg"><g transform="matrix(1.25 0 0 -1.25 -361.7335 223.03972)"><path d="m488.86872 178.20293c-130.36583 0-199.48192-92.498414-199.48192-92.498414l28.33051-19.142524s3.42568 8.580038 11.27617 20.85536c.0317-3.07676.45464-5.223092.45464-5.223092 5.00635-38.866567 42.76803-37.930852 42.76803-37.930852h234.09283s38.26391-1.052019 43.25968 37.788116c0 0 .40706 2.003595.4282 5.059209 7.69191-11.968703 11.07528-20.289701 11.07528-20.289701l28.31466 18.941636s-70.16283 92.440262-200.51808 92.440262" fill="#ed1c24"/><path d="m643.77779 82.637779s-5.1015-29.720871-37.95728-29.720871h-233.71221c-32.85049 0-37.47621 29.995771-37.47621 29.995771-1.26348 7.961514.2749 13.411926 2.73314 17.181221 23.65722 31.14295 70.46944 72.96997 151.40093 72.96997 81.61874 0 128.82745-42.42969 152.4741-73.57792 2.73313-3.47325 3.75872-9.14041 2.53753-16.848171" fill="#fff"/><g fill="#ed1c24"><path d="m420.60846 115.03843 3.90146 8.358h-49.99471l-3.92261-8.358h19.36985l-20.05181-40.775005h12.94671l20.04123 40.775005z"/><path d="m601.15514 87.790004c-3.71643-5.233665-8.98181-7.887503-11.76782-5.91034-2.78071 1.982448-2.01416 7.824064 1.70227 13.057728 3.71643 5.233668 8.99238 7.892788 11.76781 5.915628 2.79129-1.987736 2.01417-7.829351-1.70226-13.063016m-43.75661.200888c-3.73757-5.244238-9.00296-7.887502-11.78367-5.91034-2.76486 1.977162-2.02474 7.818777 1.70226 13.063015 3.73229 5.233663 9.00825 7.882213 11.7731 5.910343 2.76486-1.977165 2.02474-7.829353-1.69169-13.063018m-54.37724 3.806302s2.42123 8.125396 10.25586 11.376616c0 0 2.23092.75597 3.42567-.22204 0 0 1.67583-1.61239-.31719-4.599279-1.78684-2.664411-6.07951-7.485727-10.73694-9.108691 0 0-4.22394-1.844999-2.6274 2.553394m-76.33221-3.806302c-3.73758-5.244238-8.99239-7.887502-11.76782-5.91034-2.78071 1.977162-2.03531 7.818777 1.68112 13.063015 3.727 5.233663 9.00296 7.882213 11.77839 5.910343 2.79129-1.977165 2.01417-7.829353-1.69169-13.063018m186.92112-6.364982s-2.52167-1.17361-3.60541-.04229c-1.08374 1.120744-.1163 3.208924-.1163 3.208924l10.56248 22.208706h-10.76866l-1.64939-2.96574c-6.29098 5.535-18.12223 2.67498-25.44936-4.985195-4.23451-4.414253-6.62931-9.653204-6.95179-14.210193-1.20004-.792979-3.20363-2.003595-5.78346-3.018608 0 0-2.52696-1.184183-3.62127-.04229-1.08374 1.120744-.10573 3.219496-.10573 3.219496l18.75132 38.59166h-10.75809l-9.84881-19.35398c-6.29097 5.52442-18.11165 2.67498-25.45464-4.985195-1.48551-1.5701-2.73313-3.21421-3.76929-4.9059l.0106.03701c-.0687-.13745-.14274-.285473-.21675-.41235-.23789-.401776-.46521-.787693-.66081-1.178896-5.85219-10.139564-13.13174-11.820681-13.13174-11.820681-15.38381-4.599281-17.13893 2.934025-17.13893 2.934025 17.2288 6.370268 23.7048 13.914146 23.10742 19.687037-.58152 5.77818-8.51131 6.07951-8.51131 6.07951-13.0313.78241-24.31276-8.33157-27.05118-17.249948-.8247-2.717276-1.08374-5.508564-.57623-8.051385-5.21781-2.780715-8.22055-3.224783-8.22055-3.224783-4.33496-1.369211-4.87418.687249-5.38698 1.940156-.52865 1.284627-2.48995 12.381053-2.48995 12.381053l18.29668 11.968707h-11.19159l-13.74498-8.521889c-3.0979-1.284627-1.89786 1.971879-1.89786 1.971879l11.2233 22.7215h-10.77923l-18.20681-36.889404c-2.09347-1.258194-6.28568-3.689997-9.3413-4.895326 0 0-2.52167-1.184183-3.60541-.04229-1.10489 1.120744-.12159 3.219496-.12159 3.219496l10.57306 22.203424h-10.77395l-1.6494-2.96574c-6.28568 5.52442-18.12222 2.67498-25.44935-4.985199-7.34299-7.665469-9.21442-17.773314-4.19222-22.578769 4.01248-3.843308 11.23388-3.12434 17.71516 1.237048 0 0 1.63354 1.406217 2.52168-.237894.91457-1.712836 4.62571-5.582576 13.17403-2.20977 2.74371 1.073166 5.20194 2.310214 7.31127 3.47325l-2.23092-4.514696h10.75809l5.39755 10.906111 4.68915 2.986889s1.43794 1.131318 2.0036-1.284626c0 0 2.33136-9.182703 3.23007-10.366885.90928-1.200043 2.7067-3.912033 10.27701-1.739269 5.79932 1.67583 11.20216 3.727004 14.06217 4.948192 2.53225-3.499683 7.39057-5.862761 15.39437-5.862761 11.79954 0 20.14697 5.63544 23.6678 8.569465.25375-2.336647 1.15246-4.38782 2.74371-5.905054 4.00719-3.843308 11.2233-3.12434 17.6993 1.237048 0 0 1.63882 1.406217 2.53753-.237894.91986-1.712836 4.61514-5.582576 13.17404-2.20977 3.92789 1.548954 6.55001 3.029182 8.27342 4.181645.46521-1.215901 1.14717-2.278494 2.07232-3.177204 4.02833-3.827448 11.23387-3.119053 17.70987 1.252908 0 0 1.64411 1.411503 2.54282-.248467.904-1.712836 4.62572-5.587862 13.16346-2.204483 8.55889 3.367519 11.00656 6.423133 11.00656 6.423133l-2.15691 3.806302c-.30133-.169169-2.93402-2.257348-7.04166-3.86974"/></g></g></svg>