<svg width="410" height="88" viewBox="0 0 410 88" fill="none" xmlns="http://www.w3.org/2000/svg">
<path d="M108 44C108 30.0657 118.662 20 132.988 20C140.582 20 147.113 22.7329 151.446 27.7995L145.848 33.0683C142.448 29.4019 138.254 27.6024 133.387 27.6024C123.726 27.6024 116.729 34.401 116.729 44C116.729 53.599 123.726 60.3976 133.387 60.3976C138.254 60.3976 142.448 58.5981 145.848 54.8643L151.446 60.2005C147.118 65.2671 140.582 68 132.921 68C118.662 68 108 57.9343 108 44Z" fill="#2A3E5A"/>
<path d="M168.758 44C168.758 30.2005 179.42 20 193.881 20C208.342 20 219.004 30.1331 219.004 44C219.004 57.8669 208.342 68 193.881 68C179.42 68 168.758 57.7995 168.758 44ZM210.27 44C210.27 34.4685 203.273 27.6024 193.881 27.6024C184.489 27.6024 177.491 34.4685 177.491 44C177.491 53.5315 184.489 60.3976 193.881 60.3976C203.273 60.3976 210.27 53.5315 210.27 44Z" fill="#2A3E5A"/>
<path d="M284.359 67.331L284.291 36.3976L268.965 62H265.103L249.776 36.7969V67.331H241.514V20.669H248.641L267.166 51.6024L285.354 20.669H292.486L292.554 67.3362H284.359V67.331Z" fill="#2A3E5A"/>
<path d="M353.441 60.0657V67.331H318.459V20.669H352.508V27.9343H327.12V40.0691H349.642V47.2048H327.12V60.0709H353.441V60.0657Z" fill="#2A3E5A"/>
<path d="M385.877 28.0017H370.416V20.669H409.995V28.0017H394.533V67.3362H385.872V28.0017H385.877Z" fill="#2A3E5A"/>
<path fill-rule="evenodd" clip-rule="evenodd" d="M87.9943 44.7106C87.998 44.4742 87.9999 44.2373 87.9999 44C87.9999 43.7227 87.9973 43.446 87.9922 43.1699C87.5545 19.5115 68.4438 0.417558 44.7788 0.00675586C44.5186 0.00225507 44.258 0 43.9971 0C32.7447 0 22.1453 4.1939 13.9714 11.8394C13.605 12.1821 13.2436 12.5317 12.8872 12.8881C6.9052 18.8705 2.84464 26.3116 1.04875 34.4067C0.423603 37.2247 0.0728711 40.1218 0.0110343 43.0643C-0.0639367 46.6506 0.291332 50.1883 1.05336 53.614C2.69583 60.9833 6.18662 67.6559 11.014 73.12C11.0627 73.1751 11.1116 73.2301 11.1607 73.2851C11.2191 73.2099 11.2776 73.1334 11.336 73.0569C11.3945 72.9802 11.4531 72.9036 11.5116 72.8284V72.8172L11.5283 72.8061C11.5596 72.7697 11.6155 72.7048 11.6942 72.6133C13.883 70.0704 33.7693 46.9657 37.1024 43.9443C40.6054 40.7696 48.1295 35.1777 53.4147 33.6684C53.476 33.6516 53.5428 33.6405 53.6152 33.6405C53.8993 33.6405 54.1777 33.7965 54.3337 33.9468C54.5063 34.1195 54.7235 34.5094 54.6121 34.8714C53.153 39.7225 47.7062 47.4587 44.3368 51.1737C41.2069 54.6268 16.5295 75.8471 15.4769 76.7494L15.4658 76.7605H15.4546C15.3882 76.8122 15.3229 76.8638 15.2582 76.915C15.1766 76.9795 15.096 77.0432 15.0155 77.1052C17.5924 79.3632 20.4352 81.3251 23.4908 82.9379C29.62 86.1685 36.4726 87.9223 43.5236 87.9975C43.6817 87.9992 43.84 88 43.9985 88C44.2989 88 44.5987 87.997 44.8981 87.991C54.9562 87.7896 64.1862 84.2132 71.5021 78.3478C72.7527 77.3422 73.9562 76.2629 75.107 75.1119L75.1102 75.1151C82.9185 67.308 87.8063 56.58 87.9943 44.7106ZM36.0498 33.5013C39.4192 29.7863 44.8659 22.0501 46.3251 17.199V17.1934C46.4365 16.8314 46.2192 16.4415 46.0466 16.2689C45.8907 16.1185 45.6122 15.9625 45.3282 15.9625C45.2558 15.9625 45.1889 15.9737 45.1277 15.9904C39.8424 17.4997 32.3184 23.0916 28.8153 26.2663C25.3456 29.4076 17.5598 40.6638 17.2423 41.1261C16.4794 42.1342 15.6607 43.1367 14.8698 44.1003L14.8567 44.1163C13.0396 46.3336 11.1629 48.6237 9.76839 51.2962C9.62916 51.558 9.46765 52.1428 9.81851 52.4937C9.91319 52.5884 10.0914 52.7053 10.3754 52.7053C10.6205 52.7053 10.8767 52.6162 11.0159 52.5438C13.6883 51.1547 15.9783 49.2778 18.1955 47.4606L18.2114 47.4476C19.1749 46.6567 20.1774 45.838 21.1743 45.0861C21.6532 44.7575 32.9031 36.9711 36.0498 33.5013ZM40.3325 72.0208C40.4272 72.1154 40.6054 72.2324 40.8895 72.2324C41.1345 72.2324 41.3907 72.1433 41.5299 72.0709C44.2024 70.6818 46.4923 68.8049 48.7095 66.9877L48.7254 66.9747C49.6889 66.1838 50.6914 65.3651 51.6883 64.6132C52.1672 64.2846 63.4171 56.4982 66.5638 53.0284C69.9332 49.3134 75.3799 41.5772 76.8391 36.7261C76.9505 36.3585 76.7333 35.9742 76.5606 35.8015C76.4047 35.6456 76.1262 35.4896 75.8422 35.4896C75.7698 35.4896 75.703 35.5008 75.6417 35.5175C70.3565 37.0268 62.8324 42.6187 59.3293 45.7934C55.8597 48.9347 48.0738 60.1909 47.7564 60.6532C46.9934 61.6613 46.1747 62.6638 45.3839 63.6273L45.3707 63.6434C43.5537 65.8606 41.6769 68.1507 40.2824 70.8233C40.1432 71.0851 39.9817 71.6699 40.3325 72.0208Z" fill="url(#paint0_radial_6_1826)"/>
<defs>
<radialGradient id="paint0_radial_6_1826" cx="0" cy="0" r="1" gradientUnits="userSpaceOnUse" gradientTransform="translate(87.9999 4.1107e-06) rotate(147.462) scale(81.8058 81.8063)">
<stop offset="0.161458" stop-color="#d4530d"/>
<stop offset="0.880208" stop-color="#2a3e5a"/>
</radialGradient>
</defs>
</svg>
