<svg viewBox="0 0 150 40" xmlns="http://www.w3.org/2000/svg"><path d="m136.7 30c0-1.3-.8-1.8-2-1.8-.7 0-9.2 0-9.2 0-4.5 0-5.6-2.7-5.8-4.4h12.5c3.8 0 5-2.8 5-4.6 0-1.9-1.2-4.6-5-4.6-3.4 0-6.9 0-6.9 0-6.5 0-8.6 4.4-8.6 8 0 3.9 2.4 8 8.6 8h11.4c0 .1 0-.5 0-.6zm-11.2-13h6c2.2 0 2.7 1.3 2.7 2.2 0 .8-.5 2.2-2.7 2.2-1.5 0-12 0-12 0 .2-1.4 1.5-4.4 6-4.4zm-26.7 12.7c-.7.9-1 1.3-1.7 1.3-.9 0-1.1-.4-1.7-1.3-1.4-2-9.8-15-9.8-15s.6 0 1.2 0c2 0 2.6.9 3.2 1.9.5.8 7.3 11.2 7.3 11.2s6.4-9.9 7.3-11.3c.6-.9 1.4-1.8 3.3-1.8h.9s-8.8 13.4-10 15zm-63.1 1c-1.5 0-2.1-.6-2.3-1.8l-.4-1.7c-.4.7-2.4 3.5-6.8 3.5 0 0-2.2 0-4.5 0-6.8 0-8.7-4.6-8.7-8 0-3.8 2.3-8 8.7-8h4.8c4.9 0 7.6 2.8 8.2 6.3.5 2.9 1.8 9.7 1.8 9.7s-.3 0-.8 0zm-9.9-13.5c-1.6 0-2 0-3.8 0-4.6 0-6.1 2.9-6.1 5.5s1.5 5.5 6.1 5.5h3.8c4.8 0 6.1-3 6.1-5.5 0-2.2-1.2-5.5-6.1-5.5zm86.1-5.1c.7 0 1.4-.4 1.4-1.3 0-.2 0-.4 0-.5 0-.8-.7-1.3-1.4-1.3s-1.4.4-1.4 1.3v.5c0 .9.7 1.3 1.4 1.3zm-1.3 2.6h.6c1.3 0 2.1.7 2.1 2.1v13.9s-.3 0-.6 0c-1.3 0-2.1-.8-2.1-2.2 0-.1 0-13.8 0-13.8zm-69.6 2.3c.6-.6 2.4-2.3 5.9-2.3h4.5c6.8 0 8.8 4.6 8.8 8 0 3.8-2.4 8-8.8 8-1.3 0-2.7 0-4.8 0-4.9 0-8.4-3.1-8.4-8 0-1.6 0-13.4 0-13.4s.5 0 .8 0c1.4 0 2 .7 2 1.9zm6.3 11.2h3.8c4.5 0 6.1-2.9 6.1-5.5s-1.5-5.5-6.1-5.5c-1.9 0-2.5 0-3.8 0-4.8 0-6.1 3-6.1 5.5-.1 2.2 1.2 5.5 6.1 5.5zm18.8-11.2c.6-.6 2.4-2.3 5.9-2.3h4.5c6.8 0 8.7 4.6 8.7 8 0 3.8-2.3 8-8.7 8-1.3 0-2.7 0-4.8 0-4.9 0-8.4-3.1-8.4-8 0-1.6 0-13.4 0-13.4s.5 0 .8 0c1.4 0 2 .7 2 1.9zm6.3 11.2h3.8c4.6 0 6.1-2.9 6.1-5.5s-1.5-5.5-6.1-5.5c-1.9 0-2.4 0-3.8 0-4.8 0-6.1 3-6.1 5.5-.1 2.2 1.2 5.5 6.1 5.5z" fill="#213666"/></svg>