<svg height="533.97638" width="744.09448" xmlns="http://www.w3.org/2000/svg"><g transform="translate(-297.8771 116.7696)"><g fill="#d81435"><path d="m435.59761-14.298169h-6.16679c-4.62875 0-8.50855 3.86982-8.50855 8.4885904v58.1719506c0 4.618827 3.8798 8.488583 8.50855 8.488583h6.16679c4.63378 0 8.50108-3.869756 8.50108-8.488583v-58.1719506c0-4.6187704-3.8673-8.4885904-8.50108-8.4885904z"/><path d="m400.45969 155.06461h-6.16416c-4.63126 0-8.50861 3.87226-8.50861 8.49857v57.89728c0 4.89595 3.87735 8.78077 8.50861 8.78077h6.16416c4.63886 0 8.51358-3.88482 8.51358-8.78077v-57.89728c0-4.62631-3.87472-8.49857-8.51358-8.49857z"/><path d="m400.45969 239.53624h-6.16416c-4.63126 0-8.50861 3.88727-8.50861 8.49857v58.16448c0 4.62881 3.87735 8.51357 8.50861 8.51357h6.16416c4.63886 0 8.51358-3.88476 8.51358-8.51357v-58.16448c0-4.6113-3.87472-8.49857-8.51358-8.49857z"/></g><path d="m365.34683 239.53624h-6.16422c-4.63377 0-8.49862 3.88727-8.49862 8.49857v58.16448c0 4.62881 3.86485 8.51357 8.49862 8.51357h6.16422c4.64131 0 8.49863-3.88476 8.49863-8.51357v-58.16448c0-4.6113-3.85732-8.49857-8.49863-8.49857z" fill="#f8a70d"/><path d="m435.61256 155.06461h-6.17671c-4.61883 0-8.50109 3.87226-8.50109 8.49857v57.89728c0 4.89595 3.88226 8.78077 8.50109 8.78077h6.17671c4.63378 0 8.50114-3.88482 8.50114-8.78077v-57.89728c0-4.62631-3.86736-8.49857-8.50114-8.49857z" fill="#2056ad"/><path d="m470.64307-14.298169h-6.1617c-4.63378 0-8.50862 3.86982-8.50862 8.4885904v58.1719506c0 4.618827 3.87484 8.488583 8.50862 8.488583h6.1617c4.63378 0 8.50605-3.869756 8.50605-8.488583v-58.1719506c0-4.6187704-3.87227-8.4885904-8.50605-8.4885904z" fill="#f8a70d"/><path d="m365.42427-99.059469h-6.24668c-4.63126 0-8.51358 3.86981-8.51358 8.71331v57.97222c0 4.64376 3.88232 8.51358 8.51358 8.51358h6.24668c4.63378 0 8.51358-3.86982 8.51358-8.51358v-57.97222c0-4.8435-3.8798-8.71331-8.51358-8.71331z" fill="#d81435"/><g fill="#2056ad"><path d="m1023.2442 220.6416-44.93983-83.19338c-.674-1.32322-.4244-3.47034.4244-4.59383l42.34333-54.177331c2.3218-3.070866 2.0472-8.41371-5.0183-8.41371h-7.6897c-5.7173 0-9.68703 2.34685-13.00763 6.666071l-44.8897 58.02215c-1.1235 1.5729-2.996 1.5729-3.1208-.99868v-55.525501c0-4.444029-3.6701-8.139044-8.1141-8.139044h-6.9407c-4.444 0-8.1641 3.695015-8.1641 8.139044l.0499 143.392601c0 4.71618 3.6951 8.40874 8.1391 8.40874h6.9158c4.444 0 8.1141-3.69256 8.1141-8.40874 0 0 0-48.01557 0-50.06281 0-2.04976.5992-3.29309 1.498-4.44906 2.7463-3.46531 8.4886-10.87789 9.2126-11.70177 1.3732-1.65776 2.9211-1.41808 3.5952 0 .8238 1.61781 36.2014 67.82397 36.2014 67.82397 2.77143 4.93093 6.41643 6.78341 11.38473 6.78341h8.5386c4.5689 0 8.3638-3.95468 5.4677-9.57213z"/><path d="m897.73747 183.05451h-8.1889c-4.7936 0-7.0406 3.00849-7.6897 7.1479-1.5729 9.33997-6.5912 22.57721-24.2675 22.57721-16.353 0-27.41315-8.98045-27.41315-30.82611v-64.77811c0-18.974531 10.26115-29.385552 26.71405-29.385552 15.3046 0 20.7722 10.261218 22.6697 18.075722 1.2732 4.9933 4.0945 6.741 8.189 6.741h8.2388c4.1695 0 6.791-2.59652 6.791-6.741v-1.12349c-1.8225-22.095339-18.8497-37.274988-45.5888-37.274988-31.00843 0-50.28257 19.823414-50.28257 49.908048v64.93789c0 36.84053 22.36994 50.93915 50.65697 50.93915 29.7601 0 47.012-20.04313 47.012-42.95989 0-4.21433-2.6464-7.23778-6.8409-7.23778z"/><path d="m665.24949 209.92344h-55.05116c-1.19836 0-2.22204-.99611-2.22204-2.20949v-49.09917c0-1.22336 1.02368-2.21451 2.22204-2.21451h43.56652c4.44403 0 7.86444-3.62265 7.86444-7.86694v-4.86844c0-4.16942-3.42041-7.58983-7.86444-7.58983h-43.56652c-1.19836 0-2.22204-.99868-2.22204-2.22204v-40.720328c0-1.198421 1.02368-2.197104 2.22204-2.197104h52.32977c4.16942 0 7.58983-3.420406 7.58983-7.739571v-5.342843c0-4.169419-3.42041-7.614763-7.58983-7.614763h-68.75771c-4.91838 0-9.26254 4.094489-9.26254 9.012863v141.707396c0 5.17306 4.34416 9.27006 9.26254 9.27006h71.4791c4.14442 0 7.58982-3.44289 7.58982-7.85695v-4.856c0-4.15944-3.4454-7.59234-7.58982-7.59234z"/><path d="m740.67327 136.82408h-24.91658c-1.19837 0-2.19699-.97375-2.19699-2.19711v-42.642764c0-1.223359.99862-2.197047 2.19699-2.197047h25.99008c14.75524 0 20.6473 9.861744 20.6473 22.270131 0 14.30577-7.53983 24.76679-21.7208 24.76679zm49.58345 83.70019s-21.07171-44.29562-31.20807-64.22135c-.4994-1.40313-.19973-2.53409.74896-3.27061.84888-.37699 1.67271-.76647 2.62146-1.26833 18.45025-8.89804 24.29238-23.77808 24.29238-40.33084 0-24.567046-14.33071-41.169791-40.87013-41.169791h-47.16172c-5.14305 0-8.88806 4.094489-8.88806 9.012921v141.71983c0 5.8871 3.2956 9.20267 8.88806 9.20267h5.39277c5.59252 0 9.48733-3.31557 9.48733-9.20267v-62.54607c0-1.22587.99862-2.19956 2.19699-2.19956h14.20596c2.19705.13485 3.84487.79393 4.94337 2.5491 9.41233 18.72486 29.48542 64.31871 29.48542 64.31871 1.99731 4.39409 4.96831 7.1379 10.33609 7.1379h10.06154c6.16673 0 7.61482-5.12809 5.46765-9.73191z"/><path d="m551.99396 70.263349h-21.82072c-3.69507 0-6.5912 2.246981-7.54737 5.467651l-30.87616 109.42571-30.95594-109.400715c-1.03857-3.320537-4.3691-5.492646-7.55735-5.492646h-23.3337c-4.89093 0-8.98045 4.094489-8.98045 9.012921l-.00999 57.62268c0 4.61883 3.86981 8.51358 8.4936 8.51358h6.18174c4.63378 0 8.49612-3.89475 8.49612-8.51358 0 0 .02494-27.93752.02494-28.66154 0-.69908 1.46053-1.04862 1.69023-.24967.41939 1.34817 33.62237 115.91448 33.62237 115.91448 1.35569 4.26175 4.88601 6.32651 8.52356 6.32651h7.07051c3.62768 0 6.94821-2.19955 8.06668-6.30654 0-.00502 32.98824-115.85958 32.98824-115.85958.18975-.57421 1.69023-.74895 1.69023.19974v112.69632c0 5.17306 4.07702 9.27006 8.97303 9.27006h5.26043c5.18551 0 9.26003-4.097 9.26003-9.27006v-141.6824c0-4.918432-4.07452-9.012921-9.26003-9.012921z"/></g><path d="m470.65803 324.03287h-6.16668c-4.63377 0-8.5061 3.99713-8.5061 8.7782v57.88987c0 4.63623 3.87233 8.79566 8.5061 8.79566h6.16668c4.63377 0 8.5061-4.15943 8.5061-8.79566v-57.88987c0-4.78107-3.87233-8.7782-8.5061-8.7782z" fill="#d81435"/><path d="m330.30639 70.413152h-6.20919c-4.6263 0-8.50359 3.869813-8.50359 8.513578v58.17196c0 4.61882 3.87729 8.48858 8.50359 8.48858h6.20919c4.63629 0 8.49863-3.86976 8.49863-8.48858v-58.17196c0-4.643765-3.86234-8.513578-8.49863-8.513578z" fill="#f8a70d"/></g></svg>