<svg viewBox="0 0 458.31 493.87" xmlns="http://www.w3.org/2000/svg" xmlns:xlink="http://www.w3.org/1999/xlink"><linearGradient id="a" gradientUnits="userSpaceOnUse" x1="117.43" x2="117.43" y1="380.28" y2="493.79"><stop offset="0" stop-opacity=".4"/><stop offset=".54" stop-color="#194756" stop-opacity="0"/></linearGradient><linearGradient id="b" gradientUnits="userSpaceOnUse" x1="265" x2="265" y1="22.7" y2="292.21"><stop offset=".47" stop-color="#194756" stop-opacity="0"/><stop offset=".99" stop-opacity=".4"/></linearGradient><linearGradient id="c" gradientUnits="userSpaceOnUse" x1="114.57" x2="343.74" y1="177.32" y2="406.48"><stop offset=".4" stop-color="#194756" stop-opacity="0"/><stop offset=".92" stop-color="#fff" stop-opacity=".12"/><stop offset=".96" stop-color="#ececec" stop-opacity=".11"/><stop offset=".98" stop-color="#aaa" stop-opacity=".08"/><stop offset=".99" stop-color="#3a3a3a" stop-opacity=".04"/><stop offset="1" stop-opacity=".01"/></linearGradient><linearGradient id="d" gradientUnits="userSpaceOnUse" x1="414.36" x2="414.36" y1="291.9"><stop offset=".02" stop-opacity=".4"/><stop offset=".56" stop-color="#194756" stop-opacity="0"/></linearGradient><linearGradient id="e" gradientUnits="userSpaceOnUse" x1="414.09" x2="458.16" y1="449.89" y2="493.96"><stop offset=".33" stop-color="#194756" stop-opacity="0"/><stop offset=".93" stop-color="#fff" stop-opacity=".11"/></linearGradient><path d="m458.31 0v291.9h-87.91v-206.9l-123 207.17-52.07 87.83-67.53 113.79h-88.3l67.69-113.79 52.23-87.8 160.26-269.4a46.7 46.7 0 0 1 40.12-22.8h61.27l-2.24 3.76 2.32-3.76z" fill="#ff4a6c"/><path d="m195.26 380.27h-88.05l-67.62 113.52h88.21z" fill="url(#a)"/><path d="m247.44 292.21-87.85-.31 160.3-269.2 50.51 62.44z" fill="url(#b)"/><path d="m0 291.9 88.37 88.37h281.58l88.36-88.37z" fill="#ff4a6c"/><path d="m0 291.9 88.37 88.37h281.58l88.36-88.37z" fill="url(#c)"/><path d="m370.4 291.9h87.91v-291.9h-37.16l-50.75 84.63z" fill="url(#d)"/><path d="m458.31 406.31-88.12 87.48 88.12.02z" fill="#194756"/><path d="m458.31 493.79v.09-.03z" fill="#194756"/><path d="m458.31 406.31-88.12 87.48 88.12.02z" fill="url(#e)"/></svg>